<svg width="25" height="25" viewBox="0 0 25 25" fill="none" xmlns="http://www.w3.org/2000/svg">
<path fill-rule="evenodd" clip-rule="evenodd" d="M3.29045 19.6507C1.38997 17.5647 0.233807 14.8107 0.233807 11.7911C0.233807 5.27905 5.60824 0 12.2379 0C18.8676 0 24.242 5.27905 24.242 11.7911C24.242 16.3956 21.5541 20.382 17.6362 22.3231C15.2391 23.5728 12.5045 24.2808 9.60151 24.2808C6.04454 24.2808 2.74021 23.2179 0 21.3978C0 21.3978 1.83806 21.1969 3.29045 19.6507ZM17.8769 17.6266C20.9825 14.5211 20.9825 9.48599 17.8769 6.38042C16.4368 4.94039 14.5819 4.16855 12.6968 4.06408C12.6399 2.64977 13.4012 1.69415 13.4049 1.68949C11.2384 2.10801 9.16937 3.15556 7.49174 4.83321C6.20514 6.11974 5.28906 7.63643 4.74292 9.25064C4.82287 9.03894 4.91202 8.82989 5.01035 8.6242C4.89716 8.91285 4.79489 9.2078 4.70239 9.50958C3.79287 12.2706 4.43484 15.4308 6.63064 17.6266C9.73627 20.7322 14.7714 20.7322 17.8769 17.6266Z" fill="#787B7D"/>
<path fill-rule="evenodd" clip-rule="evenodd" d="M8.2168 11.1859V12.1739V12.8319C8.2168 13.4888 8.74924 14.0212 9.40615 14.0212C10.063 14.0212 10.5954 13.4888 10.5954 12.8319V12.1729V11.1859C10.5954 10.5292 10.063 9.99658 9.40615 9.99658C8.74924 9.99658 8.2168 10.5292 8.2168 11.1859Z" fill="#787B7D"/>
<path fill-rule="evenodd" clip-rule="evenodd" d="M14.1035 11.1859V12.1739V12.8319C14.1035 13.4888 14.636 14.0212 15.2928 14.0212C15.9497 14.0212 16.4822 13.4888 16.4822 12.8319V12.1729V11.1859C16.4822 10.5292 15.9497 9.99658 15.2928 9.99658C14.636 9.99658 14.1035 10.5292 14.1035 11.1859Z" fill="#787B7D"/>
</svg>