<svg width="33" height="17" viewBox="0 0 33 17" fill="none" xmlns="http://www.w3.org/2000/svg">
<path d="M1 3.99951H10" stroke="white" stroke-width="1.5" stroke-linecap="round"/>
<path d="M2.00195 8L9.00195 8" stroke="white" stroke-width="1.5" stroke-linecap="round"/>
<path d="M3 12H8" stroke="white" stroke-width="1.5" stroke-linecap="round"/>
<path d="M32.6926 4.41085V13.7308C32.6926 14.5978 32.3482 15.4294 31.7351 16.0425C31.122 16.6556 30.2904 17 29.4234 17H15.0388C14.1717 17 13.3402 16.6556 12.7271 16.0425C12.114 15.4294 11.7695 14.5978 11.7695 13.7308V4.41085L21.8989 10.3713C21.9995 10.4307 22.1142 10.462 22.2311 10.462C22.3479 10.462 22.4626 10.4307 22.5632 10.3713L32.6926 4.41085ZM29.4234 4.04766e-08C30.2278 -0.000126475 31.004 0.296332 31.6036 0.83266C32.2031 1.36899 32.5839 2.10753 32.673 2.907L22.2311 9.04923L11.7891 2.907C11.8783 2.10753 12.259 1.36899 12.8586 0.83266C13.4581 0.296332 14.2343 -0.000126475 15.0388 4.04766e-08H29.4234Z" fill="white"/>
</svg>